<?xml version="1.0" standalone="no"?>
<!DOCTYPE svg PUBLIC "-//W3C//DTD SVG 20010904//EN"
 "http://www.w3.org/TR/2001/REC-SVG-20010904/DTD/svg10.dtd">
<svg version="1.0" xmlns="http://www.w3.org/2000/svg"
 width="1464.000000pt" height="1464.000000pt" viewBox="0 0 1464.000000 1464.000000"
 preserveAspectRatio="xMidYMid meet">
<metadata>
Created by potrace 1.14, written by Peter Selinger 2001-2017
</metadata>
<g transform="translate(0.000000,1464.000000) scale(0.100000,-0.100000)"
fill="#000000" stroke="none">
<path d="M9152 12568 c-5 -7 -13 -29 -17 -48 -7 -36 -16 -59 -80 -195 -68
-145 -225 -349 -254 -331 -14 9 -7 143 11 200 17 54 37 140 38 159 0 15 -10
17 -72 17 -168 -1 -314 -18 -424 -50 -173 -50 -337 -121 -446 -193 l-53 -34
-170 -7 c-93 -3 -201 -12 -240 -20 -100 -20 -249 -70 -333 -111 -40 -19 -75
-35 -79 -35 -3 0 -30 -16 -59 -35 -76 -51 -118 -44 -79 13 9 12 22 41 29 64 8
24 17 51 21 61 6 14 2 17 -24 17 -18 0 -46 -7 -64 -16 -30 -16 -81 -35 -314
-119 -54 -19 -107 -39 -118 -44 -11 -5 -72 -32 -136 -60 -113 -49 -225 -110
-339 -183 -130 -83 -280 -253 -366 -416 -23 -42 -45 -77 -50 -77 -4 0 -13 18
-19 40 -5 22 -16 50 -22 62 -7 12 -13 32 -13 45 0 13 -9 52 -20 86 -11 35 -20
83 -20 105 -1 95 -33 87 -118 -31 -132 -183 -190 -338 -199 -532 -3 -63 -10
-121 -16 -127 -5 -7 -24 -13 -41 -13 -54 0 -190 -76 -287 -162 -54 -49 -89
-87 -89 -99 0 -10 1 -19 3 -19 77 -12 232 -50 235 -58 2 -6 -51 -68 -117 -137
-220 -230 -338 -450 -419 -785 -71 -293 -96 -449 -122 -755 -18 -224 -31 -306
-66 -450 -40 -160 -67 -394 -57 -498 7 -82 3 -87 -79 -87 -73 0 -143 -27 -207
-77 -163 -130 -239 -325 -276 -708 -42 -436 -11 -604 179 -986 53 -106 96
-201 96 -211 0 -18 -9 -60 -42 -188 -35 -134 -61 -210 -118 -345 -56 -133
-142 -288 -215 -390 -59 -83 -219 -234 -283 -267 -28 -16 -52 -32 -52 -36 0
-22 47 -52 146 -91 l108 -44 118 5 118 5 0 -26 c0 -62 -307 -622 -395 -721
-44 -49 -59 -80 -46 -93 15 -15 255 -11 285 5 12 6 48 18 81 25 33 8 70 17 82
20 28 7 29 -3 6 -89 -12 -46 -16 -109 -17 -233 0 -147 3 -182 22 -255 32 -119
118 -291 185 -371 46 -56 165 -159 183 -159 2 0 18 -10 34 -21 53 -40 59 -27
63 143 3 123 7 164 24 208 11 30 26 55 32 55 7 0 20 -23 30 -51 22 -65 105
-211 155 -272 21 -26 71 -82 112 -124 40 -43 88 -97 106 -120 18 -24 39 -47
46 -51 19 -13 14 -37 -10 -47 -13 -5 -90 -26 -173 -45 -82 -20 -195 -47 -250
-60 -55 -13 -194 -47 -310 -75 -115 -27 -239 -57 -275 -66 -36 -9 -94 -22
-130 -30 -36 -7 -92 -20 -125 -28 -32 -9 -77 -16 -100 -16 -62 0 -275 -75
-275 -97 0 -6 39 -39 87 -72 63 -44 97 -61 120 -61 17 0 34 4 37 9 3 5 18 12
33 15 16 3 62 15 103 26 99 26 395 97 440 105 19 4 58 13 85 20 57 16 131 34
435 105 118 28 271 65 340 81 130 31 218 52 380 89 52 12 120 29 150 37 68 18
74 12 84 -87 7 -80 43 -179 94 -260 106 -167 345 -338 597 -427 276 -97 487
-131 865 -140 442 -10 802 52 1118 192 333 147 552 389 606 670 10 53 15 60
37 63 13 2 292 -65 619 -147 327 -82 714 -179 860 -215 146 -37 299 -75 340
-86 41 -11 87 -23 103 -26 15 -3 30 -10 33 -15 3 -5 22 -9 43 -9 28 0 48 9 77
33 21 18 58 45 82 60 56 37 56 61 -3 81 -25 9 -65 23 -90 32 -25 9 -74 18
-108 20 -34 3 -87 11 -117 19 -133 35 -589 144 -623 150 -21 3 -41 13 -44 21
-3 8 13 61 35 117 49 122 81 230 116 392 39 178 48 191 97 139 13 -14 46 -42
72 -61 59 -44 260 -143 289 -143 24 0 23 10 -20 125 -66 180 -122 483 -122
666 0 68 4 70 98 43 40 -12 79 -15 136 -11 78 5 166 30 166 48 0 4 -13 23 -28
41 -36 43 -82 112 -82 123 0 5 -6 16 -14 24 -21 23 -62 151 -87 271 -39 190
-37 627 4 707 9 16 42 49 74 75 91 72 304 286 362 363 93 125 165 295 237 555
50 185 53 196 69 309 36 252 1 433 -106 555 -46 52 -135 102 -202 112 -48 8
-53 18 -33 60 69 146 98 256 137 519 28 192 44 267 90 428 54 188 93 356 120
517 20 116 23 173 23 400 1 237 -1 277 -22 377 -12 61 -29 130 -37 153 -30 85
-32 84 108 76 67 -4 137 -9 154 -12 44 -8 50 11 24 69 -12 25 -21 50 -21 56 0
45 -119 201 -225 296 -41 37 -75 74 -75 82 0 7 16 45 36 84 88 176 128 389
105 561 -19 146 -37 160 -97 75 -38 -54 -124 -127 -151 -127 -12 0 -13 14 -8
78 4 42 2 111 -4 152 -6 41 -15 108 -20 148 -13 92 -51 213 -106 342 -19 44
-29 55 -47 55 -19 0 -25 -8 -36 -45 -7 -25 -16 -56 -20 -70 -13 -43 -27 -27
-35 40 -17 152 -41 277 -69 373 -17 56 -36 122 -43 147 -30 104 -165 374 -192
385 -20 7 -42 -5 -49 -28 -11 -38 -125 -229 -180 -303 -53 -72 -105 -119 -125
-112 -6 2 -24 44 -40 93 -32 97 -31 95 -80 200 -29 64 -60 117 -125 215 -32
48 -135 152 -207 208 -54 43 -87 85 -87 112 0 13 -51 119 -85 175 -13 22 -30
54 -38 70 -24 51 -138 172 -191 202 -27 16 -41 16 -54 1z m78 -393 c0 -8 -4
-15 -10 -15 -5 0 -7 7 -4 15 4 8 8 15 10 15 2 0 4 -7 4 -15z m-845 -75 c-11
-5 -27 -9 -35 -9 -9 0 -8 4 5 9 11 5 27 9 35 9 9 0 8 -4 -5 -9z m-1375 -443
c0 -8 -82 -68 -87 -64 -2 3 14 19 38 36 41 30 49 35 49 28z m-100 -81 c0 -2
-7 -7 -16 -10 -8 -3 -12 -2 -9 4 6 10 25 14 25 6z m1374 -135 c-10 -11 -142
-27 -133 -17 8 8 132 35 138 29 3 -2 0 -7 -5 -12z m-1884 -1225 c0 -16 -41 27
-72 74 l-30 45 51 -55 c28 -30 51 -59 51 -64z m337 78 c63 -35 78 -50 30 -30
-35 14 -97 56 -84 56 4 0 28 -12 54 -26z m-88 -260 c14 -12 -19 -1 -35 12 -18
14 -18 14 6 3 14 -6 27 -13 29 -15z m-1399 -7 c0 -2 -10 -12 -21 -23 -22 -19
-22 -19 -10 4 10 18 31 31 31 19z m624 -404 c4 -10 23 -36 44 -59 21 -22 59
-67 84 -100 79 -99 217 -212 353 -287 96 -53 265 -127 355 -155 159 -50 421
-102 513 -102 72 0 75 17 10 61 -147 100 -381 294 -382 317 -1 16 -4 17 89
-23 171 -73 429 -143 625 -169 220 -29 303 -29 643 0 70 7 74 6 130 -29 102
-62 260 -129 396 -166 192 -53 400 -67 618 -41 l118 13 60 -42 c117 -82 290
-147 469 -175 51 -9 100 -21 109 -28 23 -19 77 -142 102 -233 48 -176 49 -404
4 -880 -17 -183 -13 -335 11 -452 17 -84 35 -305 35 -432 0 -104 -11 -254 -41
-570 -10 -112 -19 -269 -19 -347 0 -129 -3 -154 -29 -241 -25 -87 -128 -359
-151 -402 -5 -9 -30 -65 -55 -126 -25 -60 -52 -123 -60 -140 -13 -28 -82 -190
-125 -295 -85 -209 -103 -240 -205 -360 -82 -97 -139 -152 -207 -198 -64 -44
-94 -42 -69 6 12 22 21 122 11 122 -4 0 -23 -24 -43 -52 -43 -65 -193 -220
-239 -248 -18 -11 -44 -20 -57 -20 -22 0 -23 3 -17 38 3 20 9 47 12 59 9 32
-10 29 -36 -4 -76 -100 -112 -143 -120 -143 -4 0 -11 37 -15 83 -15 190 -68
312 -183 426 -161 160 -348 217 -812 246 -187 12 -636 57 -695 70 l-60 13 73
0 c61 -1 78 3 100 21 15 12 42 31 60 42 17 12 32 28 32 35 0 8 17 31 38 49 46
43 90 46 138 10 112 -86 275 72 261 253 -5 70 -43 155 -70 160 -15 3 -16 0 -6
-25 19 -47 17 -191 -4 -245 -20 -52 -58 -88 -91 -88 -11 0 -46 12 -76 26 -83
39 -117 37 -181 -13 -30 -23 -80 -66 -112 -97 -56 -54 -59 -56 -110 -55 -89 2
-139 22 -142 56 0 11 -10 33 -22 49 -11 16 -34 56 -51 89 -45 90 -78 117 -141
117 -29 -1 -61 -4 -72 -7 -31 -10 -75 13 -94 49 -13 25 -16 49 -13 102 3 60
10 78 46 138 23 37 42 72 42 77 0 42 -111 -71 -133 -136 -25 -72 -22 -159 7
-222 32 -69 66 -86 169 -87 73 -1 80 -3 103 -29 13 -15 29 -46 35 -70 7 -23
18 -49 25 -57 6 -8 19 -30 28 -47 10 -21 34 -42 64 -57 26 -14 43 -25 37 -25
-44 -2 -443 100 -880 225 -151 43 -169 46 -315 51 -179 6 -249 -6 -365 -62
-133 -64 -243 -191 -316 -363 -19 -45 -38 -81 -42 -79 -12 3 -64 137 -73 184
-15 85 -39 91 -52 12 -12 -69 -33 -63 -92 27 -62 95 -120 215 -127 263 -7 44
-21 73 -32 66 -5 -3 -12 -36 -16 -75 -4 -38 -11 -70 -16 -70 -25 0 -105 146
-150 276 -26 75 -28 96 -34 285 -3 112 -12 281 -20 374 -18 217 -28 749 -16
880 8 98 24 177 62 304 10 35 19 86 19 111 0 26 6 66 14 88 8 22 18 62 21 89
9 61 74 285 127 433 55 156 112 268 204 401 86 125 141 248 199 449 62 215
106 352 142 445 37 97 99 215 112 215 4 0 11 -30 14 -67 7 -74 73 -259 95
-268 21 -8 32 3 32 32 0 14 7 39 15 56 8 18 19 61 24 95 6 35 14 69 20 75 5 7
13 30 17 52 20 109 118 316 243 513 35 53 65 67 75 35z m-1741 -2104 c13 -6
32 -27 42 -47 18 -39 34 -182 19 -182 -4 0 -22 13 -39 28 -30 29 -105 62 -138
62 -21 0 -23 -38 -3 -46 13 -5 98 -111 138 -172 30 -46 23 -81 -33 -157 -93
-128 -121 -216 -117 -366 3 -86 6 -104 19 -107 14 -2 17 12 21 90 3 51 13 116
23 143 25 74 81 160 126 196 38 30 42 31 57 15 24 -24 29 -165 9 -233 -26 -88
-42 -371 -30 -529 10 -133 8 -214 -6 -214 -31 0 -137 118 -184 205 -21 39 -22
18 -1 -31 20 -49 95 -163 120 -186 10 -9 33 -18 49 -20 l30 -3 6 -140 c5 -147
4 -165 -15 -165 -31 1 -123 81 -166 145 -54 81 -202 363 -230 439 -63 174 -65
185 -64 436 0 195 4 257 22 362 42 243 69 312 160 409 68 72 128 94 185 68z
m6731 -1203 c48 -20 72 -50 103 -130 23 -59 28 -86 27 -156 -1 -110 -26 -250
-75 -425 -107 -381 -168 -489 -390 -696 -183 -170 -233 -211 -304 -246 -39
-20 -142 -53 -164 -53 -13 0 -15 37 -2 45 5 3 13 19 16 36 8 36 67 166 87 193
10 12 29 19 60 20 51 2 88 24 181 107 58 51 73 81 20 39 -78 -61 -215 -132
-228 -118 -5 5 51 167 65 191 18 30 91 229 100 272 5 22 16 60 24 84 9 24 16
55 16 70 0 30 45 223 62 264 13 34 51 52 77 37 68 -36 80 -313 19 -433 -10
-21 -18 -48 -16 -60 3 -19 7 -16 34 23 66 97 78 142 78 290 1 116 -2 145 -23
208 l-24 73 24 25 c31 33 164 126 207 143 38 16 42 38 6 47 -88 22 -245 -53
-316 -150 -45 -63 -33 -16 27 101 60 117 122 199 158 206 49 9 119 6 151 -7z
m-4894 -1919 c74 -25 235 -79 356 -121 510 -175 799 -222 1454 -235 328 -7
381 -10 420 -26 248 -100 281 -370 73 -587 -125 -130 -314 -236 -503 -283
-100 -25 -250 -25 -350 -1 -160 40 -246 97 -310 205 l-38 66 70 7 c39 4 73 10
76 12 10 11 -12 26 -38 26 -15 0 -30 6 -33 14 -5 12 -1 13 24 4 17 -6 44 -8
61 -4 18 4 37 1 46 -6 12 -10 14 -9 11 7 -4 17 -16 21 -84 28 -95 10 -438 62
-548 83 -42 9 -85 13 -95 11 -13 -4 -12 -5 5 -6 12 0 25 -6 29 -13 5 -8 -2 -9
-27 -4 -19 3 -35 11 -37 16 -2 6 -10 10 -18 10 -8 0 -14 4 -14 8 0 5 -17 14
-39 20 -47 14 -51 15 -51 2 0 -29 121 -100 171 -100 14 0 34 -7 45 -15 18 -14
18 -14 -4 -15 -13 0 -41 -18 -65 -40 -23 -23 -67 -53 -97 -68 -52 -26 -62 -27
-195 -26 -131 0 -145 2 -226 32 -125 46 -223 106 -313 192 -199 189 -313 416
-292 584 11 84 56 169 113 210 109 81 211 84 423 13z m771 -921 l34 -15 -40 6
c-22 3 -51 12 -65 20 l-25 14 31 -5 c18 -3 47 -12 65 -20z m382 7 c-7 -2 -21
-2 -30 0 -10 3 -4 5 12 5 17 0 24 -2 18 -5z m-170 -46 c63 -1 97 -6 97 -13 0
-21 -241 4 -255 26 -3 5 9 4 27 -1 18 -5 77 -10 131 -12z m952 -1207 c21 -13
65 -23 131 -30 54 -6 124 -17 154 -25 30 -8 81 -19 113 -26 73 -13 99 -37 88
-76 -104 -351 -451 -581 -1016 -673 -196 -33 -476 -46 -672 -32 -364 26 -592
80 -838 197 -225 107 -414 319 -431 483 l-6 59 35 20 c37 22 135 45 302 70
141 21 142 20 220 -27 156 -96 376 -170 506 -170 43 0 98 -6 121 -14 173 -56
227 -66 367 -66 148 0 229 15 366 67 89 34 295 136 360 179 61 39 144 84 158
84 5 0 24 -9 42 -20z"/>
<path d="M5680 8059 c-173 -25 -332 -124 -460 -285 -69 -87 -155 -222 -146
-231 3 -4 61 21 128 54 216 107 399 153 608 153 299 0 584 -96 969 -324 120
-71 152 -74 181 -16 11 22 26 76 32 119 10 73 9 82 -11 124 -51 105 -393 287
-681 362 -194 50 -454 69 -620 44z"/>
<path d="M8485 7351 c-169 -14 -313 -62 -352 -117 -37 -54 -58 -125 -58 -202
0 -105 12 -109 212 -68 192 39 331 49 597 43 274 -5 420 -28 609 -93 151 -53
342 -161 412 -234 32 -34 61 -41 50 -12 -4 9 -20 51 -35 92 -121 322 -294 461
-665 534 -248 49 -568 73 -770 57z"/>
<path d="M5395 7274 c-11 -3 -54 -14 -97 -24 -76 -19 -148 -55 -148 -76 0 -6
9 -18 19 -25 11 -8 43 -70 72 -139 72 -170 148 -293 200 -320 11 -6 95 -22
187 -35 92 -14 190 -31 217 -39 28 -8 68 -16 90 -20 64 -9 328 -83 471 -131
155 -53 199 -56 281 -19 95 42 139 54 172 48 42 -9 48 11 26 89 -40 143 -137
320 -211 386 -116 102 -424 220 -724 278 -111 21 -170 26 -335 29 -110 1 -209
1 -220 -2z m190 -124 c144 -14 297 -37 395 -60 47 -11 95 -20 108 -20 34 0 62
-18 62 -40 0 -27 -14 -33 -77 -32 -46 0 -60 5 -84 28 -33 31 -32 31 -48 -15
-28 -83 -1 -177 65 -227 33 -26 46 -29 109 -29 63 0 76 3 108 28 48 36 67 74
75 150 7 60 8 62 35 59 63 -7 264 -120 304 -171 42 -53 124 -194 129 -219 6
-30 4 -32 -50 -57 -82 -38 -165 -43 -246 -15 -107 36 -229 70 -253 70 -12 0
-51 9 -87 19 -121 37 -235 63 -375 85 -175 29 -203 36 -244 67 -69 49 -133
172 -152 291 -15 90 -10 98 64 98 34 0 107 -5 162 -10z"/>
<path d="M8530 6670 c-200 -26 -393 -95 -566 -201 -124 -76 -157 -122 -101
-141 24 -9 47 -1 165 55 229 109 324 134 543 144 266 11 450 -31 780 -178 97
-44 200 -83 228 -89 58 -11 125 -1 148 23 13 12 11 17 -11 34 -14 11 -104 62
-201 113 -246 129 -386 183 -575 222 -108 22 -313 31 -410 18z"/>
<path d="M7766 6468 c-2 -7 -15 -90 -30 -184 -15 -94 -41 -220 -57 -280 -56
-201 -100 -477 -80 -497 10 -10 24 24 56 146 15 54 33 114 41 134 23 54 62
218 79 332 17 115 20 346 5 356 -6 3 -12 0 -14 -7z"/>
<path d="M8654 6182 c3 -5 85 -12 183 -15 98 -4 252 -10 343 -13 131 -5 163
-4 153 6 -18 20 -691 41 -679 22z"/>
<path d="M5643 4390 c-33 -20 -63 -66 -63 -97 0 -27 28 -63 57 -74 14 -5 55
-14 91 -19 45 -6 106 -27 187 -64 287 -132 708 -260 1020 -310 291 -47 339
-50 775 -52 234 -1 450 -7 480 -12 84 -15 120 8 120 77 0 54 -30 101 -82 127
-26 13 -54 24 -62 24 -8 0 -27 -16 -43 -37 -37 -45 -59 -49 -338 -59 -268 -9
-664 21 -902 70 -258 53 -404 95 -663 187 -91 33 -174 63 -185 68 -192 85
-206 94 -231 143 l-24 48 -53 0 c-34 0 -63 -7 -84 -20z"/>
</g>
</svg>
